Coordinates
version=1
nRows=19
nColumns=36
inDegrees=yes

Units are S.I. units (second, meters, Newtons, ...)
If the header above contains a line with 'inDegrees', this indicates whether rotational values are in degrees (yes) or radians (no).

endheader
time	pelvis_tilt	pelvis_list	pelvis_rotation	pelvis_tx	pelvis_ty	pelvis_tz	hip_flexion_r	hip_adduction_r	hip_rotation_r	knee_angle_r	knee_angle_r_beta	ankle_angle_r	subtalar_angle_r	mtp_angle_r	hip_flexion_l	hip_adduction_l	hip_rotation_l	knee_angle_l	knee_angle_l_beta	ankle_angle_l	subtalar_angle_l	mtp_angle_l	lumbar_extension	lumbar_bending	lumbar_rotation	arm_flex_r	arm_add_r	arm_rot_r	elbow_flex_r	pro_sup_r	arm_flex_l	arm_add_l	arm_rot_l	elbow_flex_l	pro_sup_l
      0.00000000	     -7.57552094	     -0.09781922	     -1.57638432	     -0.02976138	      1.15320803	     -0.00487778	     11.67103771	     -1.58516252	      0.24865749	      7.81048201	      0.13631863	      3.81975791	    -16.91153462	     -6.07615934	     13.16167728	      0.61607840	      0.14191749	     10.48446525	      0.18298844	      1.16737693	    -17.14980222	     -6.07615934	      0.75866034	     -1.07902209	      0.39906847	      0.11748460	    -14.42978220	     15.85725471	     28.31265595	     72.03310646	      1.80520101	    -10.45934772	     26.19734302	     25.13154091	     63.66421257
      0.01666670	     -8.52585473	     -0.49705484	     -2.07730247	     -0.02835532	      1.15117428	     -0.00403394	     12.79420570	     -0.67713125	      1.45154683	      8.19005127	      0.14294336	      5.40929511	    -17.04147112	     -6.23785269	     14.35625761	      0.31527702	      0.04361405	     10.98112359	      0.19165676	      2.34490639	    -17.44224285	     -6.23785269	      2.77971450	     -0.58567079	      0.64457448	      1.04593952	    -14.45985300	     15.39353753	     28.67409144	     71.22473553	      1.98548967	     -9.84636905	     26.39426465	     25.09140773	     63.46402410
      0.03333330	     -9.13705632	      0.24623288	     -2.48898868	     -0.02672015	      1.15151842	     -0.00261569	     13.05247028	     -1.24420466	      1.15604525	      7.45437577	      0.13010340	      5.52697179	    -16.30523791	     -6.39509547	     15.02867274	      0.93432815	     -0.33742742	     11.08481993	      0.19346660	      2.77604271	    -17.40361976	     -6.39509547	      3.77744794	     -1.65836941	      1.00782316	      2.22843144	    -14.40481232	     16.47156869	     29.88489679	     71.59663569	      3.28488722	    -10.26703593	     28.93341238	     25.84121924	     64.05911901
      0.05000000	     -9.16626464	      0.60729210	     -2.87536511	     -0.02895657	      1.15219620	      0.00029593	     12.93128430	     -1.37657309	      1.49307117	      6.91052181	      0.12061136	      5.62497902	    -16.03796404	     -6.51571560	     14.91443750	      1.15911363	     -0.38264346	     10.92433221	      0.19066557	      2.50661134	    -18.17099453	     -6.51571560	      3.62340022	     -2.24072460	      1.33776373	      3.34042224	    -14.27526160	     16.81685745	     31.76111543	     71.15380009	      4.71899200	    -10.52365723	     29.45709109	     27.14493690	     63.92743822
      0.06666670	     -9.65852685	      0.84112769	     -3.05144010	     -0.03083558	      1.14999092	      0.00025364	     13.38740952	     -1.38471672	      2.12474372	      6.33840972	      0.11062612	      5.98776514	    -15.33699175	     -6.57581647	     15.65363975	      1.31516318	     -0.50806342	     11.21305515	      0.19570473	      2.67615124	    -18.42108640	     -6.57581647	      3.84704361	     -2.56002307	      1.33189810	      4.76887501	    -14.08684784	     16.91595018	     33.91683386	     70.83145309	      6.01643264	    -10.57353349	     29.61808653	     28.52558776	     63.82376883
      0.08333330	     -9.32307421	      0.96570422	     -3.20230291	     -0.02130609	      1.14788368	      0.00257657	     12.52521865	     -1.40402821	      2.44237117	      5.89850513	      0.10294834	      6.02819715	    -14.83389424	     -6.61034459	     14.98162073	      1.34724630	     -0.55054430	     10.83053883	      0.18902856	      2.22967960	    -19.12519997	     -6.61034459	      3.58757203	     -2.75240435	      1.61080744	      5.54139855	    -14.20128850	     17.56450688	     37.65453574	     72.07355924	      7.36716392	    -10.69866866	     30.53730425	     30.27048867	     64.27428365
      0.10000000	     -9.68370626	      1.16372085	     -3.51883186	     -0.01879718	      1.14375455	      0.00442736	     12.64963855	     -1.48363522	      2.95960267	      5.57534350	      0.09730810	      6.46031989	    -14.71566560	     -6.97589329	     15.04074587	      1.38285313	     -0.65034644	     10.47918665	      0.18289631	      2.73192002	    -19.18452240	     -6.97589329	      4.25913554	     -3.02382060	      2.53337393	      5.30686258	    -13.70867619	     14.43545569	     41.47091539	     80.00037083	      8.82277175	    -10.48491564	     30.41604683	     32.04617017	     66.49997634
      0.11666670	     -9.68507983	      1.24304240	     -3.88840579	     -0.01480325	      1.14328844	      0.00306498	     12.31743737	     -1.50709903	      3.43848469	      5.18408164	      0.09047929	      6.42063868	    -14.86607891	     -7.02376091	     14.62432470	      1.37814463	     -0.69399581	     10.24930259	      0.17888408	      2.78989031	    -19.33784542	     -7.02376091	      4.84119668	     -3.08538481	      2.52556278	      6.17813356	    -13.53087858	     14.89100154	     44.56788653	     79.26468823	      9.77494283	    -10.18610708	     29.82630471	     33.69323801	     66.14624833
      0.13333330	     -9.78076736	      1.30896185	     -4.18904580	     -0.01314868	      1.14659542	      0.00157528	     12.01709416	     -1.58723261	      3.79293334	      4.66095805	      0.08134906	      6.14143485	    -14.98721876	     -7.06366138	     14.23195029	      1.45341494	     -0.75714592	      9.83182822	      0.17159777	      2.78914358	    -19.44665157	     -7.06366138	      5.53979838	     -3.05303166	      2.49073237	      6.93741298	    -13.52052049	     15.56875474	     47.95709324	     79.07441285	     10.84177290	     -9.72140172	     29.19221966	     35.29451918	     66.08082433
      0.15000000	     -9.93278022	      1.36195253	     -4.39842917	     -0.01732858	      1.14827563	      0.00114460	     11.95710608	     -1.68269131	      4.02560794	      4.11308062	      0.07178680	      5.89589170	    -15.09440195	     -7.07892454	     14.12281842	      1.53676221	     -0.73361279	      9.53473652	      0.16641255	      2.73038549	    -19.53196638	     -7.07892454	      5.97677786	     -2.96771274	      2.43002527	      8.40616723	    -13.40300157	     16.49874078	     50.32649990	     79.62784894	     12.56510284	     -9.13643249	     29.18217517	     36.68498624	     66.46438802
      0.16666670	    -10.37387350	      1.38032759	     -4.22986225	     -0.02523009	      1.14129320	      0.00048946	     12.35740074	     -1.69651752	      4.38922351	      3.84048722	      0.06702915	      5.74686592	    -15.29882569	     -7.09392985	     14.71609532	      1.65175404	     -0.30717202	      9.56545329	      0.16694865	      2.41256837	    -20.02202345	     -7.09392985	      6.38507310	     -2.93589240	      2.08338719	     10.52283587	    -13.26497988	     17.94853049	     52.66614477	     80.08291358	     15.01554199	     -8.52744267	     29.80704885	     37.78825763	     66.91599786
      0.18333330	    -10.46544094	      1.46065693	     -4.14820507	     -0.02255515	      1.15365945	     -0.00001227	     12.24552247	     -1.83435420	      4.47278283	      3.53107326	      0.06162885	      5.34249472	    -15.22604099	     -7.12621543	     14.76637485	      1.79284667	     -0.17719616	      9.30716761	      0.16244072	      1.63296330	    -20.15983621	     -7.12621543	      6.43076371	     -3.01391341	      1.74402684	     12.32219667	    -12.99323886	     20.12645610	     53.54640282	     79.46013074	     17.31379541	     -7.70915876	     30.93841392	     37.91877498	     67.17504931
      0.20000000	    -10.42066671	      1.43183083	     -4.01192719	     -0.02089008	      1.15430669	      0.00025575	     11.98166414	     -1.85712129	      4.30372542	      3.14878758	      0.05495671	      4.71553851	    -15.38090703	     -7.20245659	     14.66639459	      1.81767479	     -0.10092564	      9.21807479	      0.16088576	      0.96486492	    -20.25696880	     -7.20245659	      6.25448952	     -2.97430696	      1.45798521	     13.65782115	    -12.61255960	     21.41963121	     54.63251913	     79.14323705	     19.18924946	     -6.80130087	     31.45723875	     38.48315800	     67.36546789
      0.21666670	    -10.28911337	      1.34899360	     -3.74101956	     -0.01978368	      1.15113234	     -0.00053847	     11.59815316	     -1.85915472	      4.03594096	      2.70934395	      0.04728697	      4.46506609	    -15.19585768	     -7.23788452	     14.48848695	      1.82034304	      0.06722917	      9.13854165	      0.15949764	      0.66534579	    -19.95218514	     -7.23788452	      6.10685250	     -2.87966613	      1.12803276	     14.33818244	    -12.19408826	     21.88216617	     55.86822303	     78.66847930	     20.48806356	     -5.89347631	     31.51388712	     39.10203531	     67.24920012
      0.23333330	    -10.59379954	      1.26464047	     -3.54003351	     -0.02004385	      1.15177580	     -0.00022976	     11.73383529	     -1.79270420	      3.69039201	      2.47939238	      0.04327356	      4.39927513	    -14.84550461	     -7.25133650	     14.89754766	      1.74139679	      0.04087401	      9.26850323	      0.16176590	      0.70109592	    -19.58311693	     -7.25133650	      6.66130370	     -2.67620585	      0.96296974	     14.42980765	    -11.68738073	     21.95374772	     56.80086353	     77.98299807	     20.95638943	     -5.26582248	     31.46952080	     40.34487855	     66.95731375
      0.25000000	    -10.15870245	      1.17459033	     -3.36965537	     -0.01920580	      1.15399586	      0.00008878	     11.06098757	     -1.74850812	      3.70837667	      2.22826198	      0.03889051	      3.55117094	    -15.82135517	     -7.30920747	     14.31678416	      1.73206483	      0.28716555	      8.93513552	      0.15594753	      0.13742867	    -19.55461857	     -7.30920747	      6.29561336	     -2.56099855	      1.32837920	     14.53748213	    -11.25094275	     21.85132874	     57.26949741	     79.87539203	     21.93849691	     -4.48410568	     32.97686651	     40.23070618	     68.78848647
      0.26666670	     -9.76679455	      1.09453156	     -3.08297264	     -0.01232953	      1.15470615	     -0.00036768	     10.27220306	     -1.74031324	      3.06667506	      1.96647982	      0.03432155	      3.28063485	    -15.38891433	     -7.31849612	     13.65829675	      1.70825398	      0.29578855	      8.79853894	      0.15356347	     -0.16246376	    -19.30785071	     -7.31849612	      6.26275932	     -2.46463753	      1.42360178	     13.67827644	    -10.60134979	     20.82892284	     58.06984723	     80.57444653	     21.64787712	     -3.97864768	     32.80516160	     41.59572846	     69.46421493
      0.28333330	     -9.65354141	      1.10461936	     -3.08440751	     -0.01407722	      1.15350600	     -0.00042237	      9.94161935	     -1.77508643	      2.82105633	      1.82364598	      0.03182863	      2.99134985	    -15.42967774	     -7.39536601	     13.34336438	      1.71270646	      0.11688974	      8.62535697	      0.15054088	     -0.16280758	    -18.91341442	     -7.39536601	      6.58907739	     -2.46308028	      1.99837455	     12.79508537	     -9.99363663	     19.45424146	     59.04247808	     84.86023230	     21.61128681	     -3.33469010	     32.37201639	     42.30680867	     74.04722630
      0.30000000	     -9.44804255	      1.00773319	     -2.99265307	     -0.01024770	      1.15735331	     -0.00024362	      9.46177738	     -1.71018450	      2.56377481	      1.65772406	      0.02893274	      2.73754184	    -15.41093617	     -7.39602200	     12.90789646	      1.63271698	      0.26587825	      8.43409807	      0.14720278	     -0.23148237	    -18.79560234	     -7.39602200	      7.07466575	     -2.35252307	      2.24497822	     12.13832234	     -9.53779997	     19.67251922	     59.06648134	     84.87847987	     21.02108684	     -2.98094756	     32.50609077	     42.66978611	     74.10597417
